<?xml version="1.0" standalone="no"?>
<!DOCTYPE svg PUBLIC "-//W3C//DTD SVG 20010904//EN"
 "http://www.w3.org/TR/2001/REC-SVG-20010904/DTD/svg10.dtd">
<svg version="1.0" xmlns="http://www.w3.org/2000/svg"
 width="700.000000pt" height="700.000000pt" viewBox="0 0 700.000000 700.000000"
 preserveAspectRatio="xMidYMid meet">
<metadata>
Created by potrace 1.14, written by Peter Selinger 2001-2017
</metadata>
<g transform="translate(0.000000,700.000000) scale(0.100000,-0.100000)"
fill="#000000" stroke="none">
<path d="M3819 6966 c-2 -2 -20 -7 -39 -10 -39 -6 -153 -41 -375 -114 -322
-107 -314 -107 -446 -17 -90 62 -102 67 -136 62 -47 -7 -95 -58 -139 -149 -51
-101 -124 -261 -122 -263 2 -1 25 -19 53 -41 249 -198 451 -492 522 -759 7
-28 25 -102 28 -115 6 -28 14 -135 9 -115 -9 34 -18 57 -70 159 -118 238 -346
541 -484 645 -19 14 -37 28 -40 31 -30 34 -192 116 -263 135 -175 45 -340 53
-453 20 -109 -31 -123 -54 -83 -130 64 -121 303 -363 639 -645 36 -30 70 -59
76 -65 6 -5 26 -22 45 -37 19 -14 75 -59 125 -100 50 -40 108 -86 129 -103 21
-16 43 -34 49 -40 6 -5 28 -23 49 -38 30 -23 59 -66 72 -107 18 -60 25 -92 25
-122 0 -40 1 -40 120 -52 173 -18 226 -17 309 3 58 14 106 19 155 16 67 -3
146 -24 171 -45 7 -6 52 5 130 31 98 33 269 81 335 94 98 20 180 62 230 118
151 172 683 955 783 1153 70 139 33 189 -210 278 -71 26 -200 83 -288 127
-230 114 -269 113 -315 -12 -13 -34 -34 -74 -48 -90 -20 -24 -31 -29 -71 -29
-55 0 -134 21 -154 42 -21 21 -37 54 -38 80 -1 27 -14 -22 -24 -90 -3 -24 -10
-66 -16 -95 -5 -29 -12 -65 -15 -82 -2 -16 -9 -55 -14 -85 -5 -30 -12 -71 -15
-90 -17 -98 -88 -327 -139 -445 -12 -27 -28 -69 -36 -93 -21 -67 -22 -42 -1
44 21 83 68 313 75 367 3 18 7 48 10 67 5 37 15 120 21 185 31 310 28 387 -21
488 -16 34 -21 37 -59 37 -23 0 -44 -2 -46 -4z"/>
<path d="M4055 4933 c-49 -12 -118 -30 -152 -39 l-62 -16 20 -41 c12 -22 24
-66 26 -97 5 -52 3 -60 -24 -90 -24 -27 -38 -33 -80 -37 -106 -11 -253 92
-253 176 0 12 16 39 35 60 l36 39 -41 7 c-96 16 -229 -21 -345 -96 -88 -58
-139 -102 -239 -209 -103 -109 -318 -323 -421 -420 -140 -130 -185 -196 -248
-360 -64 -166 -71 -172 -231 -215 -52 -14 -102 -28 -110 -31 -12 -4 -13 1 -6
28 24 99 83 214 168 328 58 78 220 244 332 341 200 172 326 286 429 389 64 63
137 131 161 151 63 51 148 109 159 109 6 0 12 4 15 9 6 9 -1 8 -109 -3 -151
-17 -149 -16 -190 -54 -22 -20 -42 -39 -45 -42 -7 -7 -245 -161 -290 -187 -63
-37 -110 -63 -279 -150 -199 -103 -392 -207 -443 -240 -21 -12 -40 -23 -43
-23 -14 0 -133 -86 -166 -120 -73 -75 -141 -199 -216 -395 -169 -442 -236
-589 -364 -790 -94 -148 -144 -249 -188 -384 -32 -95 -75 -293 -86 -391 -3
-30 -9 -73 -12 -95 -3 -22 -6 -224 -7 -450 -2 -507 12 -449 -205 -825 -145
-250 -184 -335 -220 -478 -24 -90 -28 -165 -13 -204 6 -15 30 -41 54 -58 l42
-31 1081 4 c594 3 1094 7 1110 10 17 3 71 8 120 11 50 4 119 9 155 11 327 24
463 28 870 25 1417 -8 1931 -3 2275 24 78 6 104 9 195 22 25 3 54 7 65 9 11 1
36 6 55 9 19 4 42 8 50 10 46 8 131 38 161 58 109 73 97 260 -36 578 -50 118
-164 349 -280 570 -159 299 -316 611 -344 680 -50 125 -103 328 -127 480 -3
25 -8 54 -10 65 -2 11 -8 61 -14 110 -6 50 -13 104 -15 120 -2 17 -7 59 -10
95 -6 70 -13 141 -20 205 -2 22 -7 69 -10 105 -15 158 -46 374 -70 480 -9 41
-18 86 -21 100 -3 14 -18 65 -35 114 -96 289 -265 482 -534 615 -139 68 -219
94 -490 162 -288 72 -330 88 -377 143 -26 29 -33 51 -40 116 l-3 25 -90 -22z
m-430 -792 c19 -1 21 -7 19 -56 -1 -53 0 -55 25 -57 200 -12 435 -79 684 -195
l97 -46 0 -342 0 -342 -45 2 -46 1 -33 95 c-32 90 -93 228 -106 239 -4 3 -9
12 -12 20 -23 62 -179 226 -273 285 -54 35 -185 94 -224 101 -13 3 -32 9 -43
15 -10 5 -19 6 -20 2 0 -4 -2 -238 -2 -519 l-1 -510 167 -113 c324 -217 500
-362 596 -492 51 -68 114 -202 137 -289 23 -89 30 -269 15 -371 -40 -279 -227
-524 -492 -649 -85 -40 -233 -84 -318 -95 -25 -3 -54 -8 -65 -10 -11 -2 -24
-4 -30 -4 -6 -1 -10 -54 -10 -139 l0 -137 -100 0 -100 0 -1 123 c0 67 -3 125
-7 128 -3 4 -39 8 -79 10 -165 7 -325 28 -453 60 -97 24 -292 87 -327 106 -17
8 -18 37 -18 388 l0 380 50 0 c46 0 50 -2 56 -27 60 -268 135 -421 263 -542
99 -93 272 -166 441 -186 30 -4 59 -8 64 -8 5 -1 9 247 10 563 l1 565 -25 23
c-14 12 -88 66 -165 119 -294 203 -511 386 -602 507 -138 185 -180 391 -129
643 9 45 64 161 104 220 125 183 307 305 560 374 96 26 83 23 175 39 84 14 84
14 77 97 -2 28 20 31 185 24z"/>
<path d="M3375 3859 c-120 -23 -216 -76 -284 -158 -123 -147 -112 -343 28
-490 72 -77 305 -251 318 -238 3 3 5 205 5 448 0 365 -2 443 -13 444 -8 1 -32
-2 -54 -6z"/>
<path d="M3649 1968 c-1 -2 -2 -225 -3 -496 -1 -352 2 -492 10 -492 22 0 81
22 152 57 118 59 190 151 217 277 48 234 -63 440 -342 635 -18 12 -34 21 -34
19z"/>
<path d="M3666 4827 c-17 -13 -16 -16 19 -44 21 -17 46 -33 55 -36 16 -4 17
-1 9 23 -10 29 -44 70 -57 70 -5 0 -16 -6 -26 -13z"/>
</g>
</svg>
